<svg xmlns="http://www.w3.org/2000/svg" xmlns:xlink="http://www.w3.org/1999/xlink" id="svg1234" width="1.0416666in" height="0.20833333in" version="1.1">
    <defs id="defs49">
        <linearGradient id="linearGradient840">
            <stop id="stop836" offset="0" style="stop-color:#3a3a3a;stop-opacity:1"/>
            <stop id="stop838" offset="1" style="stop-color:#3c3836;stop-opacity:1"/>
        </linearGradient>
        <linearGradient id="linearGradient903">
            <stop stop-opacity="1" offset="0" stop-color="#6796E6" id="stop901" style="stop-color:#6796E6;stop-opacity:1"/>
            <stop stop-opacity="1" offset="1" stop-color="#6796E6" id="stop899" style="stop-color:#6796E6;stop-opacity:1"/>
        </linearGradient>
        <linearGradient xlink:href="#linearGradient903" id="linearGradient882" x1="4" y1="4" x2="12" y2="12" gradientUnits="userSpaceOnUse"/>
        <linearGradient xlink:href="#linearGradient840" id="linearGradient839" x1="4" y1="4" x2="12" y2="12" gradientUnits="userSpaceOnUse"/>
    </defs>
    <g id="active-center" transform="matrix(1.25,0,0,1.25,-6,6.2344231e-8)" style="stroke-width:0.80000001">
        <rect y="-1.6000004" x="-2.4000001" height="19.200001" width="20.799999" id="rect827" style="opacity:0;fill:#47a3ff;fill-opacity:1;stroke:none;stroke-width:0.40000001;stroke-linecap:round;stroke-linejoin:miter;stroke-miterlimit:4;stroke-dasharray:none;stroke-opacity:1"/>
        <path style="fill:none;stroke:#ffffff;stroke-width:0.80000001px;stroke-linecap:butt;stroke-linejoin:miter;stroke-opacity:1" d="m 7.6,14.8 v -4 h 3.2 V 9.2 H 9.2 V 5.1999996 l -3.2,-4e-7 V 9.1999996 H 4.4 V 10.8 h 4" id="path876" transform="translate(0,-1.6000004)"/>
    </g>
    <g id="hover-center" transform="matrix(1.25,0,0,1.25,20,0)" style="stroke-width:0.80000001">
        <rect y="-1.6000004" x="-2.4000001" height="19.200001" width="20.799999" id="rect827-5" style="opacity:0;fill:#77777f;fill-opacity:0.94117647;stroke:none;stroke-width:0.40000001;stroke-linecap:round;stroke-linejoin:miter;stroke-miterlimit:4;stroke-dasharray:none;stroke-opacity:1"/>
        <path style="opacity:0.75;fill:none;stroke:#ffffff;stroke-width:0.80000001px;stroke-linecap:butt;stroke-linejoin:miter;stroke-opacity:1" d="m 7.6,14.8 v -4 h 3.2 V 9.2 H 9.2 V 5.1999996 l -3.2,-4e-7 V 9.1999996 H 4.4 V 10.8 h 4" id="path876-6" transform="translate(0,-0.77500038)"/>
    </g>
    <g id="pressed-center" transform="matrix(1.25,0,0,1.25,40,0)" style="stroke-width:0.80000001">
        <rect y="-1.6000004" x="-2.4000001" height="19.200001" width="20.799999" id="rect827-0" style="opacity:0;fill:#77777f;fill-opacity:0.94117647;stroke:none;stroke-width:0.40000001;stroke-linecap:round;stroke-linejoin:miter;stroke-miterlimit:4;stroke-dasharray:none;stroke-opacity:1"/>
        <path style="fill:#ffffff;fill-opacity:1;stroke:#ffffff;stroke-width:0.80000001px;stroke-linecap:butt;stroke-linejoin:miter;stroke-opacity:1" d="m 7.6,14.8 v -4 h 3.2 V 9.2 H 9.2 V 5.1999996 l -3.2,-4e-7 V 9.1999996 H 4.4 V 10.8 h 3.2" id="path876-5" transform="translate(0.05000013,-1.6000004)"/>
    </g>
    <g id="deactivated-center" transform="matrix(1.25,0,0,1.25,60,0)" style="stroke-width:0.80000001">
        <rect y="-1.6000004" x="-2.4000001" height="19.200001" width="20.799999" id="rect827-5-6" style="opacity:0;fill:none;fill-opacity:1;stroke:none;stroke-width:0.40000001;stroke-linecap:round;stroke-linejoin:miter;stroke-miterlimit:4;stroke-dasharray:none;stroke-opacity:1"/>
        <path style="opacity:0.5;fill:none;stroke:#fcfcff;stroke-width:0.80000001px;stroke-linecap:butt;stroke-linejoin:miter;stroke-opacity:1" d="m 7.6,14.8 v -4 h 3.2 V 9.2 H 9.2 V 5.1999996 l -3.2,-4e-7 V 9.1999996 H 4.4 V 10.8 h 4" id="path876-62" transform="translate(0,-1.6000004)"/>
    </g>
    <g id="inactive-center" transform="matrix(-1.25,0,0,-1.25,100,20)" style="stroke-width:0.80000001">
        <rect y="-1.5999997" x="-2.4000006" height="19.200001" width="20.799999" id="rect827-5-6-8" style="opacity:0;fill:none;fill-opacity:1;stroke:none;stroke-width:0.40000001;stroke-linecap:round;stroke-linejoin:miter;stroke-miterlimit:4;stroke-dasharray:none;stroke-opacity:1"/>
        <path style="opacity:0.75;fill:none;stroke:#fcfcff;stroke-width:0.80000001px;stroke-linecap:butt;stroke-linejoin:miter;stroke-opacity:1" d="m 7.6,14.8 v -4 h 3.2 V 9.2 H 9.2 V 5.1999996 l -3.2,-4e-7 V 9.1999996 H 4.4 V 10.8 h 4" id="path876-1" transform="rotate(180,8,8.8000002)"/>
    </g>
    <style id="current-color-scheme" type="text/css">
        .ColorScheme-Text{color:#232629}
    </style>
</svg>
