<svg xmlns="http://www.w3.org/2000/svg" width="26" height="22">
    <g id="active-center" style="opacity:1">
      <path d="M0 0h26v22H0z" fill="#e81123" style="opacity:1" />
      <path d="M9 7v1h1V7zm1 1v1h1V8zm1 1v1h1V9zm1 1v2h2v-2zm2 0h1V9h-1zm1-1h1V8h-1zm1-1h1V7h-1zm-2 4v1h1v-1zm1 1v1h1v-1zm1 1v1h1v-1zm-4-2h-1v1h1zm-1 1h-1v1h1zm-1 1H9v1h1z" fill="#ffffff"/>
    <path d="M8 6v1h1V6zm9 0v1h1V6zm-9 9v1h1v-1zm9 0v1h1v-1z" opacity=".7" fill="#ffffff"/>
    <path d="M9 6v1h1V6zm1 1v1h1V7zm1 1v1h1V8zm1 1v1h2V9zm2 0h1V8h-1zm1-1h1V7h-1zm1-1h1V6h-1zm1 0v1h1V7zm0 1h-1v1h1zm-1 1h-1v1h1zm-1 1h-1v2h1zm0 2v1h1v-1zm1 1v1h1v-1zm1 1v1h1v-1zm0 1h-1v1h1zm-1 0v-1h-1v1zm-1-1v-1h-1v1zm-1-1v-1h-2v1zm-2 0h-1v1h1zm-1 1h-1v1h1zm-1 1H9v1h1zm-1 0v-1H8v1zm0-1h1v-1H9zm1-1h1v-1h-1zm1-1h1v-2h-1zm0-2V9h-1v1zm-1-1V8H9v1zM9 8V7H8v1z" opacity=".3" fill="#ffffff"/>
    </g>
    <g id="hover-center" style="opacity:1">
      <path d="M0 0h26v22H0z" fill="#e81123" style="opacity:1"/>
      <path d="M9 7v1h1V7zm1 1v1h1V8zm1 1v1h1V9zm1 1v2h2v-2zm2 0h1V9h-1zm1-1h1V8h-1zm1-1h1V7h-1zm-2 4v1h1v-1zm1 1v1h1v-1zm1 1v1h1v-1zm-4-2h-1v1h1zm-1 1h-1v1h1zm-1 1H9v1h1z" fill="#ffffff"/>
    <path d="M8 6v1h1V6zm9 0v1h1V6zm-9 9v1h1v-1zm9 0v1h1v-1z" opacity=".7" fill="#ffffff"/>
    <path d="M9 6v1h1V6zm1 1v1h1V7zm1 1v1h1V8zm1 1v1h2V9zm2 0h1V8h-1zm1-1h1V7h-1zm1-1h1V6h-1zm1 0v1h1V7zm0 1h-1v1h1zm-1 1h-1v1h1zm-1 1h-1v2h1zm0 2v1h1v-1zm1 1v1h1v-1zm1 1v1h1v-1zm0 1h-1v1h1zm-1 0v-1h-1v1zm-1-1v-1h-1v1zm-1-1v-1h-2v1zm-2 0h-1v1h1zm-1 1h-1v1h1zm-1 1H9v1h1zm-1 0v-1H8v1zm0-1h1v-1H9zm1-1h1v-1h-1zm1-1h1v-2h-1zm0-2V9h-1v1zm-1-1V8H9v1zM9 8V7H8v1z" opacity=".3" fill="#ffffff"/>
    </g>
    <g id="pressed-center" style="opacity:1">
      <path d="M0 0h26v22H0z" fill="#e81123" style="opacity:1"/>
      <path d="M9 7v1h1V7zm1 1v1h1V8zm1 1v1h1V9zm1 1v2h2v-2zm2 0h1V9h-1zm1-1h1V8h-1zm1-1h1V7h-1zm-2 4v1h1v-1zm1 1v1h1v-1zm1 1v1h1v-1zm-4-2h-1v1h1zm-1 1h-1v1h1zm-1 1H9v1h1z" fill="#ffffff"/>
    <path d="M8 6v1h1V6zm9 0v1h1V6zm-9 9v1h1v-1zm9 0v1h1v-1z" opacity=".7" fill="#ffffff"/>
    <path d="M9 6v1h1V6zm1 1v1h1V7zm1 1v1h1V8zm1 1v1h2V9zm2 0h1V8h-1zm1-1h1V7h-1zm1-1h1V6h-1zm1 0v1h1V7zm0 1h-1v1h1zm-1 1h-1v1h1zm-1 1h-1v2h1zm0 2v1h1v-1zm1 1v1h1v-1zm1 1v1h1v-1zm0 1h-1v1h1zm-1 0v-1h-1v1zm-1-1v-1h-1v1zm-1-1v-1h-2v1zm-2 0h-1v1h1zm-1 1h-1v1h1zm-1 1H9v1h1zm-1 0v-1H8v1zm0-1h1v-1H9zm1-1h1v-1h-1zm1-1h1v-2h-1zm0-2V9h-1v1zm-1-1V8H9v1zM9 8V7H8v1z" opacity=".3" fill="#ffffff"/>
    </g>
    <g id="inactive-center" style="opacity:1">
      <path d="M0 0h26v22H0z" fill="#e5e5e5" style="opacity:0"/>
      <path d="M9 7v1h1V7zm1 1v1h1V8zm1 1v1h1V9zm1 1v2h2v-2zm2 0h1V9h-1zm1-1h1V8h-1zm1-1h1V7h-1zm-2 4v1h1v-1zm1 1v1h1v-1zm1 1v1h1v-1zm-4-2h-1v1h1zm-1 1h-1v1h1zm-1 1H9v1h1z" fill="#808080"/>
    <path d="M8 6v1h1V6zm9 0v1h1V6zm-9 9v1h1v-1zm9 0v1h1v-1z" opacity=".7" fill="#808080"/>
    <path d="M9 6v1h1V6zm1 1v1h1V7zm1 1v1h1V8zm1 1v1h2V9zm2 0h1V8h-1zm1-1h1V7h-1zm1-1h1V6h-1zm1 0v1h1V7zm0 1h-1v1h1zm-1 1h-1v1h1zm-1 1h-1v2h1zm0 2v1h1v-1zm1 1v1h1v-1zm1 1v1h1v-1zm0 1h-1v1h1zm-1 0v-1h-1v1zm-1-1v-1h-1v1zm-1-1v-1h-2v1zm-2 0h-1v1h1zm-1 1h-1v1h1zm-1 1H9v1h1zm-1 0v-1H8v1zm0-1h1v-1H9zm1-1h1v-1h-1zm1-1h1v-2h-1zm0-2V9h-1v1zm-1-1V8H9v1zM9 8V7H8v1z" opacity=".3" fill="#808080"/>
    </g>
    <g id="deactivated-center" style="opacity:1">
      <path d="M0 0h26v22H0z" fill="#e5e5e5" style="opacity:0"/>
      <path d="M9 7v1h1V7zm1 1v1h1V8zm1 1v1h1V9zm1 1v2h2v-2zm2 0h1V9h-1zm1-1h1V8h-1zm1-1h1V7h-1zm-2 4v1h1v-1zm1 1v1h1v-1zm1 1v1h1v-1zm-4-2h-1v1h1zm-1 1h-1v1h1zm-1 1H9v1h1z" fill="#808080"/>
    <path d="M8 6v1h1V6zm9 0v1h1V6zm-9 9v1h1v-1zm9 0v1h1v-1z" opacity=".7" fill="#808080"/>
    <path d="M9 6v1h1V6zm1 1v1h1V7zm1 1v1h1V8zm1 1v1h2V9zm2 0h1V8h-1zm1-1h1V7h-1zm1-1h1V6h-1zm1 0v1h1V7zm0 1h-1v1h1zm-1 1h-1v1h1zm-1 1h-1v2h1zm0 2v1h1v-1zm1 1v1h1v-1zm1 1v1h1v-1zm0 1h-1v1h1zm-1 0v-1h-1v1zm-1-1v-1h-1v1zm-1-1v-1h-2v1zm-2 0h-1v1h1zm-1 1h-1v1h1zm-1 1H9v1h1zm-1 0v-1H8v1zm0-1h1v-1H9zm1-1h1v-1h-1zm1-1h1v-2h-1zm0-2V9h-1v1zm-1-1V8H9v1zM9 8V7H8v1z" opacity=".3" fill="#808080"/>
    </g>
</svg>
