<svg xmlns="http://www.w3.org/2000/svg" width="26" height="22">
    <g id="active-center" style="opacity:1">
      <path d="M0 0h26v22H0z" fill="#e5e5e5" style="opacity:0" />
      <path d="M7 7v9h9V7zm1 1h7v7H8z"   fill="#202020"/>
    <path d="M9 5v2h1V6h7v8h-2v1h3V5z" fill="#202020"/>

    </g>
    <g id="hover-center" style="opacity:1">
      <path d="M0 0h26v22H0z" fill="#e5e5e5" style="opacity:0.5"/>
      <path d="M7 7v9h9V7zm1 1h7v7H8z"   fill="#202020"/>
    <path d="M9 5v2h1V6h7v8h-2v1h3V5z" fill="#202020"/>

    </g>
    <g id="pressed-center" style="opacity:1">
      <path d="M0 0h26v22H0z" fill="#e5e5e5" style="opacity:0.5"/>
<path d="M7 7v9h9V7zm1 1h7v7H8z"   fill="#202020"/>
    <path d="M9 5v2h1V6h7v8h-2v1h3V5z" fill="#202020"/>

    </g>
    <g id="inactive-center" style="opacity:1">
      <path d="M0 0h26v22H0z" fill="#e5e5e5" style="opacity:0"/>
    <path d="M7 7v9h9V7zm1 1h7v7H8z"   fill="#808080"/>
    <path d="M9 5v2h1V6h7v8h-2v1h3V5z" fill="#808080"/>

    </g>
    <g id="deactivated-center" style="opacity:1">
      <path d="M0 0h26v22H0z" fill="#e5e5e5" style="opacity:0"/>
    <path d="M7 7v9h9V7zm1 1h7v7H8z"   fill="#808080"/>
    <path d="M9 5v2h1V6h7v8h-2v1h3V5z" fill="#808080"/>

    </g>
</svg>
